<?xml version="1.0" encoding="utf-8"?>
<svg version="1.1" id="Logo_MD" xmlns="http://www.w3.org/2000/svg" xmlns:xlink="http://www.w3.org/1999/xlink" x="0px" y="0px"
	 viewBox="0 0 430.3 140" style="enable-background:new 0 0 430.3 140;" xml:space="preserve">
<style type="text/css">
	.st0{fill:transparent;stroke:#000000;stroke-width:10;}
	.st1{enable-background:new    ;}
</style>
<g>
	<g>
		<path class="st0" d="M20.9,12h175.6c5.4,0,9.9,4.4,9.9,9.9v96.7c0,5.4-4.4,9.9-9.9,9.9H20.9c-5.4,0-9.9-4.4-9.9-9.9V21.9
			C11,16.4,15.4,12,20.9,12z"/>
		<path d="M35.7,103.8V36.7h19.7l19.7,24.7l19.7-24.7h19.7v67.1H94.9V65.3L75.1,89.9L55.4,65.3v38.5H35.7z M159,103.8l-29.6-32.6
			h19.7V36.7h19.7v34.5h19.7L159,103.8z"/>
	</g>
	<g class="st1">
		<path d="M231.2,36.5h32.7c20.6,0,28.8,9,28.8,21.2c0,14.2-10.5,22.1-28.8,22.1h-9.1v24h-23.6V36.5z M260.9,67.2
			c5.2,0,10.1-2,10.1-9.2c0-6.1-3.3-8.9-10.4-8.9h-5.8v18.1H260.9z"/>
		<path d="M328.7,50.8c20.2,0,30.7,12.3,30.7,26.9c0,13.8-9.8,26.9-30.5,26.9c-21,0-30.9-13-30.9-26.9C298,63,308.5,50.8,328.7,50.8
			z M328.7,87.8c6,0,10.2-4.1,10.2-10.1s-4.1-10.1-10.2-10.1s-10.2,4.1-10.2,10.1S322.7,87.8,328.7,87.8z"/>
		<path d="M368.3,36.5h20.5v67.3h-20.5V36.5z"/>
		<path d="M400.6,36.5h20.5v67.3h-20.5V36.5z"/>
	</g>
</g>
</svg>
